<?xml version="1.0" encoding="iso-8859-1"?>
<!-- Uploaded to: SVG Repo, www.svgrepo.com, Generator: SVG Repo Mixer Tools -->
<svg height="800px" width="800px" version="1.1" id="Layer_1" xmlns="http://www.w3.org/2000/svg" xmlns:xlink="http://www.w3.org/1999/xlink" 
	 viewBox="0 0 509.82 509.82" xml:space="preserve">
<g>
	<path style="fill:#556080;" d="M498.759,499.478L498.759,499.478c-13.789,13.789-36.149,13.789-49.938,0L337.682,386.9
		l49.938-49.938L498.759,449.54C512.547,463.329,512.547,485.689,498.759,499.478"/>
	<path style="fill:#8697CB;" d="M298.824,273.133c-7.424,9.181-15.793,17.54-24.973,24.973l76.314,76.306l24.973-24.964
		L298.824,273.133z"/>
	<path style="fill:#24AE5F;" d="M168.444,0h-0.062v167.724h167.724h0.062C336.168,75.096,261.071,0,168.444,0"/>
	<path style="fill:#4482C3;" d="M33.509,68.405l2.463,2.216l132.414,97.103V0C113.001,0.018,64.034,27.004,33.509,68.405"/>
	<path style="fill:#F0C419;" d="M0.719,167.724c0,55.164,26.748,103.954,67.858,134.524l2.701-2.11l97.103-132.414L34.388,67.231
		C13.343,95.258,0.719,129.977,0.719,167.724"/>
	<path style="fill:#C03A2B;" d="M168.384,167.724L71.28,300.138l-2.675,2.083c-0.018,0.026-0.026,0.053-0.044,0.071
		c27.886,20.807,62.411,33.156,99.884,33.156c92.628,0,167.724-75.096,167.724-167.724H168.384z"/>
</g>
</svg>